STARTFONT 2.1
COMMENT
COMMENT Converted from OpenType font "DSEG14ClassicBoldNum.otf" by "otf2bdf 3.0".
COMMENT
FONT -FreeType-DSEG14 Classic-Bold-R-Normal--44-320-100-100-P-83-ISO10646-1
SIZE 32 100 100
FONTBOUNDINGBOX 35 44 -3 0
STARTPROPERTIES 19
FOUNDRY "FreeType"
FAMILY_NAME "DSEG14 Classic"
WEIGHT_NAME "Bold"
SLANT "R"
SETWIDTH_NAME "Normal"
ADD_STYLE_NAME ""
PIXEL_SIZE 44
POINT_SIZE 320
RESOLUTION_X 100
RESOLUTION_Y 100
SPACING "P"
AVERAGE_WIDTH 83
CHARSET_REGISTRY "ISO10646"
CHARSET_ENCODING "1"
FONT_ASCENT 44
FONT_DESCENT 0
COPYRIGHT "Created by Keshikan  with FontForge 2.0 (http://fontforge.sf.net)"
_OTF_FONTFILE "DSEG14ClassicBoldNum.otf"
_OTF_PSNAME "DSEG14Classic-Bold"
ENDPROPERTIES
CHARS 95
STARTCHAR 0000
ENCODING 0
SWIDTH 0 0
DWIDTH 0 0
BBX 0 0 0 0
BITMAP
ENDCHAR
STARTCHAR 001D
ENCODING 29
SWIDTH 0 0
DWIDTH 0 0
BBX 0 0 0 0
BITMAP
ENDCHAR
STARTCHAR 0020
ENCODING 32
SWIDTH 202 0
DWIDTH 9 0
BBX 0 0 0 0
BITMAP
ENDCHAR
STARTCHAR 0021
ENCODING 33
SWIDTH 810 0
DWIDTH 36 0
BBX 0 0 0 0
BITMAP
ENDCHAR
STARTCHAR 0022
ENCODING 34
SWIDTH 810 0
DWIDTH 36 0
BBX 17 20 4 22
BITMAP
400000
E00000
F00000
F80000
FC1F80
FC1F80
FC1F80
FC1F80
FC1F80
FC1F80
FC1F80
FC1F80
FC1F80
FC1F80
FC1F80
FC0F00
FC0E00
F80600
F00000
E00000
ENDCHAR
STARTCHAR 0024
ENCODING 36
SWIDTH 810 0
DWIDTH 36 0
BBX 28 44 4 0
BITMAP
1FFFFF80
3FFFFF80
5FFFFF00
EFFFFE00
F7FFFC00
F8000000
FC1F8000
FC1F8000
FC1F8000
FC1F8000
FC1F8000
FC1F8000
FC1F8000
FC1F8000
FC1F8000
FC1F8000
FC1F8000
FC0F0000
FC0E0000
FBF6FC00
F7F9FE00
EFF9FF00
0FF9FF70
07F9FEF0
03F6FDF0
000E03F0
000F03F0
001F83F0
001F83F0
001F83F0
001F83F0
001F83F0
001F83F0
001F83F0
001F83F0
001F83F0
001F83F0
001F83F0
000001F0
07FFFCF0
0FFFFE70
1FFFFF20
3FFFFF80
1FFFFF80
ENDCHAR
STARTCHAR 0025
ENCODING 37
SWIDTH 810 0
DWIDTH 36 0
BBX 28 40 4 2
BITMAP
40000000
E0000000
F0000000
F8000000
FD000800
FD801800
FD801800
FDC03800
FDC03800
FDC03800
FDC03800
FDC03800
FDC03800
FDC03800
FCC03000
FCC03000
FC000000
FBF0FC00
F7F9FE00
EFF9FF00
0FF9FF70
07F9FEF0
03F0FDF0
000003F0
00C033F0
00C033F0
01C03BF0
01C03BF0
01C03BF0
01C03BF0
01C03BF0
01C03BF0
01C03BF0
01801BF0
01801BF0
01000BF0
000001F0
000000F0
00000070
00000020
ENDCHAR
STARTCHAR 0026
ENCODING 38
SWIDTH 810 0
DWIDTH 36 0
BBX 26 44 6 0
BITMAP
7FFFFE00
FFFFFE00
7FFFFC00
3FFFF800
1FFFF000
00000000
04002000
06006000
06006000
0700E000
0700E000
0700E000
0700E000
0700E000
0700E000
0700E000
0300C000
0300C000
00000000
00000000
00000000
00000000
000001C0
000003C0
000007C0
00000FC0
0300CFC0
0300CFC0
0700EFC0
0700EFC0
0700EFC0
0700EFC0
0700EFC0
0700EFC0
0700EFC0
06006FC0
06006FC0
04002FC0
000007C0
1FFFF3C0
3FFFF9C0
7FFFFC80
FFFFFE00
7FFFFE00
ENDCHAR
STARTCHAR 0027
ENCODING 39
SWIDTH 810 0
DWIDTH 36 0
BBX 6 14 15 23
BITMAP
FC
FC
FC
FC
FC
FC
FC
FC
FC
FC
FC
78
70
30
ENDCHAR
STARTCHAR 0028
ENCODING 40
SWIDTH 810 0
DWIDTH 36 0
BBX 3 32 22 6
BITMAP
20
60
60
E0
E0
E0
E0
E0
E0
E0
C0
C0
00
00
00
00
00
00
00
00
C0
C0
E0
E0
E0
E0
E0
E0
E0
60
60
20
ENDCHAR
STARTCHAR 0029
ENCODING 41
SWIDTH 810 0
DWIDTH 36 0
BBX 3 32 11 6
BITMAP
80
C0
C0
E0
E0
E0
E0
E0
E0
E0
60
60
00
00
00
00
00
00
00
00
60
60
E0
E0
E0
E0
E0
E0
E0
C0
C0
80
ENDCHAR
STARTCHAR 002A
ENCODING 42
SWIDTH 810 0
DWIDTH 36 0
BBX 20 32 8 6
BITMAP
11F880
19F980
19F980
1DFB80
1DFB80
1DFB80
1DFB80
1DFB80
1DFB80
1DFB80
0DFB00
0CF300
00E000
3F6FC0
7F9FE0
FF9FF0
FF9FF0
7F9FE0
3F6FC0
00E000
0CF300
0DFB00
1DFB80
1DFB80
1DFB80
1DFB80
1DFB80
1DFB80
1DFB80
19F980
19F980
11F880
ENDCHAR
STARTCHAR 002B
ENCODING 43
SWIDTH 810 0
DWIDTH 36 0
BBX 20 32 8 6
BITMAP
01F800
01F800
01F800
01F800
01F800
01F800
01F800
01F800
01F800
01F800
01F800
00F000
00E000
3F6FC0
7F9FE0
FF9FF0
FF9FF0
7F9FE0
3F6FC0
00E000
00F000
01F800
01F800
01F800
01F800
01F800
01F800
01F800
01F800
01F800
01F800
01F800
ENDCHAR
STARTCHAR 002C
ENCODING 44
SWIDTH 810 0
DWIDTH 36 0
BBX 3 12 11 6
BITMAP
60
60
E0
E0
E0
E0
E0
E0
E0
C0
C0
80
ENDCHAR
STARTCHAR 002D
ENCODING 45
SWIDTH 810 0
DWIDTH 36 0
BBX 20 6 8 19
BITMAP
3F0FC0
7F9FE0
FF9FF0
FF9FF0
7F9FE0
3F0FC0
ENDCHAR
STARTCHAR 002E
ENCODING 46
SWIDTH 0 0
DWIDTH 0 0
BBX 6 5 -3 0
BITMAP
78
FC
FC
78
78
ENDCHAR
STARTCHAR 002F
ENCODING 47
SWIDTH 810 0
DWIDTH 36 0
BBX 14 32 11 6
BITMAP
0004
000C
000C
001C
001C
001C
001C
001C
001C
001C
0018
0018
0000
0000
0000
0000
0000
0000
0000
0000
6000
6000
E000
E000
E000
E000
E000
E000
E000
C000
C000
8000
ENDCHAR
STARTCHAR 0030
ENCODING 48
SWIDTH 810 0
DWIDTH 36 0
BBX 28 44 4 0
BITMAP
1FFFFF80
3FFFFF80
5FFFFF20
EFFFFE70
F7FFFCF0
F80001F0
FC000BF0
FC001BF0
FC001BF0
FC003BF0
FC003BF0
FC003BF0
FC003BF0
FC003BF0
FC003BF0
FC003BF0
FC0033F0
FC0033F0
FC0003F0
F80001F0
F00000F0
E0000070
E0000070
F00000F0
F80001F0
FC0003F0
FCC003F0
FCC003F0
FDC003F0
FDC003F0
FDC003F0
FDC003F0
FDC003F0
FDC003F0
FDC003F0
FD8003F0
FD8003F0
FD0003F0
F80001F0
F7FFFCF0
EFFFFE70
5FFFFF20
3FFFFF80
1FFFFF80
ENDCHAR
STARTCHAR 0031
ENCODING 49
SWIDTH 810 0
DWIDTH 36 0
BBX 6 40 26 2
BITMAP
08
1C
3C
7C
FC
FC
FC
FC
FC
FC
FC
FC
FC
FC
FC
FC
FC
7C
3C
1C
1C
3C
7C
FC
FC
FC
FC
FC
FC
FC
FC
FC
FC
FC
FC
FC
7C
3C
1C
08
ENDCHAR
STARTCHAR 0032
ENCODING 50
SWIDTH 810 0
DWIDTH 36 0
BBX 28 44 4 0
BITMAP
1FFFFF80
3FFFFF80
1FFFFF20
0FFFFE70
07FFFCF0
000001F0
000003F0
000003F0
000003F0
000003F0
000003F0
000003F0
000003F0
000003F0
000003F0
000003F0
000003F0
000003F0
000003F0
03F0FDF0
07F9FEF0
0FF9FF70
EFF9FF00
F7F9FE00
FBF0FC00
FC000000
FC000000
FC000000
FC000000
FC000000
FC000000
FC000000
FC000000
FC000000
FC000000
FC000000
FC000000
FC000000
F8000000
F7FFFC00
EFFFFE00
5FFFFF00
3FFFFF80
1FFFFF80
ENDCHAR
STARTCHAR 0033
ENCODING 51
SWIDTH 810 0
DWIDTH 36 0
BBX 26 44 6 0
BITMAP
7FFFFE00
FFFFFE00
7FFFFC80
3FFFF9C0
1FFFF3C0
000007C0
00000FC0
00000FC0
00000FC0
00000FC0
00000FC0
00000FC0
00000FC0
00000FC0
00000FC0
00000FC0
00000FC0
00000FC0
00000FC0
0FC3F7C0
1FE7FBC0
3FE7FDC0
3FE7FDC0
1FE7FBC0
0FC3F7C0
00000FC0
00000FC0
00000FC0
00000FC0
00000FC0
00000FC0
00000FC0
00000FC0
00000FC0
00000FC0
00000FC0
00000FC0
00000FC0
000007C0
1FFFF3C0
3FFFF9C0
7FFFFC80
FFFFFE00
7FFFFE00
ENDCHAR
STARTCHAR 0034
ENCODING 52
SWIDTH 810 0
DWIDTH 36 0
BBX 28 40 4 2
BITMAP
40000020
E0000070
F00000F0
F80001F0
FC0003F0
FC0003F0
FC0003F0
FC0003F0
FC0003F0
FC0003F0
FC0003F0
FC0003F0
FC0003F0
FC0003F0
FC0003F0
FC0003F0
FC0003F0
FBF0FDF0
F7F9FEF0
EFF9FF70
0FF9FF70
07F9FEF0
03F0FDF0
000003F0
000003F0
000003F0
000003F0
000003F0
000003F0
000003F0
000003F0
000003F0
000003F0
000003F0
000003F0
000003F0
000001F0
000000F0
00000070
00000020
ENDCHAR
STARTCHAR 0035
ENCODING 53
SWIDTH 810 0
DWIDTH 36 0
BBX 28 44 4 0
BITMAP
1FFFFF80
3FFFFF80
5FFFFF00
EFFFFE00
F7FFFC00
F8000000
FC000000
FC000000
FC000000
FC000000
FC000000
FC000000
FC000000
FC000000
FC000000
FC000000
FC000000
FC000000
FC000000
FBF0FC00
F7F9FE00
EFF9FF00
0FF9FF70
07F9FEF0
03F0FDF0
000003F0
000003F0
000003F0
000003F0
000003F0
000003F0
000003F0
000003F0
000003F0
000003F0
000003F0
000003F0
000003F0
000001F0
07FFFCF0
0FFFFE70
1FFFFF20
3FFFFF80
1FFFFF80
ENDCHAR
STARTCHAR 0036
ENCODING 54
SWIDTH 810 0
DWIDTH 36 0
BBX 28 44 4 0
BITMAP
1FFFFF80
3FFFFF80
5FFFFF00
EFFFFE00
F7FFFC00
F8000000
FC000000
FC000000
FC000000
FC000000
FC000000
FC000000
FC000000
FC000000
FC000000
FC000000
FC000000
FC000000
FC000000
FBF0FC00
F7F9FE00
EFF9FF00
EFF9FF70
F7F9FEF0
FBF0FDF0
FC0003F0
FC0003F0
FC0003F0
FC0003F0
FC0003F0
FC0003F0
FC0003F0
FC0003F0
FC0003F0
FC0003F0
FC0003F0
FC0003F0
FC0003F0
F80001F0
F7FFFCF0
EFFFFE70
5FFFFF20
3FFFFF80
1FFFFF80
ENDCHAR
STARTCHAR 0037
ENCODING 55
SWIDTH 810 0
DWIDTH 36 0
BBX 28 42 4 2
BITMAP
1FFFFF80
3FFFFF80
5FFFFF20
EFFFFE70
F7FFFCF0
F80001F0
FC0003F0
FC0003F0
FC0003F0
FC0003F0
FC0003F0
FC0003F0
FC0003F0
FC0003F0
FC0003F0
FC0003F0
FC0003F0
FC0003F0
FC0003F0
F80001F0
F00000F0
E0000070
00000070
000000F0
000001F0
000003F0
000003F0
000003F0
000003F0
000003F0
000003F0
000003F0
000003F0
000003F0
000003F0
000003F0
000003F0
000003F0
000001F0
000000F0
00000070
00000020
ENDCHAR
STARTCHAR 0038
ENCODING 56
SWIDTH 810 0
DWIDTH 36 0
BBX 28 44 4 0
BITMAP
1FFFFF80
3FFFFF80
5FFFFF20
EFFFFE70
F7FFFCF0
F80001F0
FC0003F0
FC0003F0
FC0003F0
FC0003F0
FC0003F0
FC0003F0
FC0003F0
FC0003F0
FC0003F0
FC0003F0
FC0003F0
FC0003F0
FC0003F0
FBF0FDF0
F7F9FEF0
EFF9FF70
EFF9FF70
F7F9FEF0
FBF0FDF0
FC0003F0
FC0003F0
FC0003F0
FC0003F0
FC0003F0
FC0003F0
FC0003F0
FC0003F0
FC0003F0
FC0003F0
FC0003F0
FC0003F0
FC0003F0
F80001F0
F7FFFCF0
EFFFFE70
5FFFFF20
3FFFFF80
1FFFFF80
ENDCHAR
STARTCHAR 0039
ENCODING 57
SWIDTH 810 0
DWIDTH 36 0
BBX 28 44 4 0
BITMAP
1FFFFF80
3FFFFF80
5FFFFF20
EFFFFE70
F7FFFCF0
F80001F0
FC0003F0
FC0003F0
FC0003F0
FC0003F0
FC0003F0
FC0003F0
FC0003F0
FC0003F0
FC0003F0
FC0003F0
FC0003F0
FC0003F0
FC0003F0
FBF0FDF0
F7F9FEF0
EFF9FF70
0FF9FF70
07F9FEF0
03F0FDF0
000003F0
000003F0
000003F0
000003F0
000003F0
000003F0
000003F0
000003F0
000003F0
000003F0
000003F0
000003F0
000003F0
000001F0
07FFFCF0
0FFFFE70
1FFFFF20
3FFFFF80
1FFFFF80
ENDCHAR
STARTCHAR 003A
ENCODING 58
SWIDTH 202 0
DWIDTH 9 0
BBX 5 23 2 10
BITMAP
70
F8
F8
F8
70
00
00
00
00
00
00
00
00
00
00
00
00
00
70
F8
F8
F8
F0
ENDCHAR
STARTCHAR 003C
ENCODING 60
SWIDTH 810 0
DWIDTH 36 0
BBX 23 38 6 0
BITMAP
000020
000060
000060
0000E0
0000E0
0000E0
0000E0
0000E0
0000E0
0000E0
0000C0
0000C0
000000
000000
000000
000000
000000
000000
000000
000000
030000
030000
070000
070000
070000
070000
070000
070000
070000
060000
060000
040000
000000
1FFFF0
3FFFF8
7FFFFC
FFFFFE
7FFFFE
ENDCHAR
STARTCHAR 003D
ENCODING 61
SWIDTH 810 0
DWIDTH 36 0
BBX 23 25 6 0
BITMAP
0FC3F0
1FE7F8
3FE7FC
3FE7FC
1FE7F8
0FC3F0
000000
000000
000000
000000
000000
000000
000000
000000
000000
000000
000000
000000
000000
000000
1FFFF0
3FFFF8
7FFFFC
FFFFFE
7FFFFE
ENDCHAR
STARTCHAR 003E
ENCODING 62
SWIDTH 810 0
DWIDTH 36 0
BBX 23 38 6 0
BITMAP
040000
060000
060000
070000
070000
070000
070000
070000
070000
070000
030000
030000
000000
000000
000000
000000
000000
000000
000000
000000
0000C0
0000C0
0000E0
0000E0
0000E0
0000E0
0000E0
0000E0
0000E0
000060
000060
000020
000000
1FFFF0
3FFFF8
7FFFFC
FFFFFE
7FFFFE
ENDCHAR
STARTCHAR 003F
ENCODING 63
SWIDTH 810 0
DWIDTH 36 0
BBX 28 38 4 6
BITMAP
1FFFFF80
3FFFFF80
5FFFFF20
EFFFFE70
F7FFFCF0
F80001F0
FC0003F0
FC0003F0
FC0003F0
FC0003F0
FC0003F0
FC0003F0
FC0003F0
FC0003F0
FC0003F0
FC0003F0
FC0003F0
FC0003F0
FC0003F0
F800FDF0
F001FEF0
E001FF70
0001FF00
0001FE00
0006FC00
000E0000
000F0000
001F8000
001F8000
001F8000
001F8000
001F8000
001F8000
001F8000
001F8000
001F8000
001F8000
001F8000
ENDCHAR
STARTCHAR 0040
ENCODING 64
SWIDTH 810 0
DWIDTH 36 0
BBX 28 44 4 0
BITMAP
1FFFFF80
3FFFFF80
5FFFFF20
EFFFFE70
F7FFFCF0
F80001F0
FC0003F0
FC0003F0
FC0003F0
FC0003F0
FC0003F0
FC0003F0
FC0003F0
FC0003F0
FC0003F0
FC0003F0
FC0003F0
FC0003F0
FC0003F0
F800FDF0
F001FEF0
E001FF70
E001FF70
F001FEF0
F806FDF0
FC0E03F0
FC0F03F0
FC1F83F0
FC1F83F0
FC1F83F0
FC1F83F0
FC1F83F0
FC1F83F0
FC1F83F0
FC1F83F0
FC1F83F0
FC1F83F0
FC1F83F0
F80001F0
F7FFFCF0
EFFFFE70
5FFFFF20
3FFFFF80
1FFFFF80
ENDCHAR
STARTCHAR 0041
ENCODING 65
SWIDTH 810 0
DWIDTH 36 0
BBX 0 0 0 0
BITMAP
ENDCHAR
STARTCHAR 0042
ENCODING 66
SWIDTH 810 0
DWIDTH 36 0
BBX 0 0 0 0
BITMAP
ENDCHAR
STARTCHAR 0043
ENCODING 67
SWIDTH 810 0
DWIDTH 36 0
BBX 0 0 0 0
BITMAP
ENDCHAR
STARTCHAR 0044
ENCODING 68
SWIDTH 810 0
DWIDTH 36 0
BBX 0 0 0 0
BITMAP
ENDCHAR
STARTCHAR 0045
ENCODING 69
SWIDTH 810 0
DWIDTH 36 0
BBX 0 0 0 0
BITMAP
ENDCHAR
STARTCHAR 0046
ENCODING 70
SWIDTH 810 0
DWIDTH 36 0
BBX 0 0 0 0
BITMAP
ENDCHAR
STARTCHAR 0047
ENCODING 71
SWIDTH 810 0
DWIDTH 36 0
BBX 0 0 0 0
BITMAP
ENDCHAR
STARTCHAR 0048
ENCODING 72
SWIDTH 810 0
DWIDTH 36 0
BBX 0 0 0 0
BITMAP
ENDCHAR
STARTCHAR 0049
ENCODING 73
SWIDTH 810 0
DWIDTH 36 0
BBX 0 0 0 0
BITMAP
ENDCHAR
STARTCHAR 004A
ENCODING 74
SWIDTH 810 0
DWIDTH 36 0
BBX 0 0 0 0
BITMAP
ENDCHAR
STARTCHAR 004B
ENCODING 75
SWIDTH 810 0
DWIDTH 36 0
BBX 0 0 0 0
BITMAP
ENDCHAR
STARTCHAR 004C
ENCODING 76
SWIDTH 810 0
DWIDTH 36 0
BBX 0 0 0 0
BITMAP
ENDCHAR
STARTCHAR 004D
ENCODING 77
SWIDTH 810 0
DWIDTH 36 0
BBX 0 0 0 0
BITMAP
ENDCHAR
STARTCHAR 004E
ENCODING 78
SWIDTH 810 0
DWIDTH 36 0
BBX 0 0 0 0
BITMAP
ENDCHAR
STARTCHAR 004F
ENCODING 79
SWIDTH 810 0
DWIDTH 36 0
BBX 0 0 0 0
BITMAP
ENDCHAR
STARTCHAR 0050
ENCODING 80
SWIDTH 810 0
DWIDTH 36 0
BBX 0 0 0 0
BITMAP
ENDCHAR
STARTCHAR 0051
ENCODING 81
SWIDTH 810 0
DWIDTH 36 0
BBX 0 0 0 0
BITMAP
ENDCHAR
STARTCHAR 0052
ENCODING 82
SWIDTH 810 0
DWIDTH 36 0
BBX 0 0 0 0
BITMAP
ENDCHAR
STARTCHAR 0053
ENCODING 83
SWIDTH 810 0
DWIDTH 36 0
BBX 0 0 0 0
BITMAP
ENDCHAR
STARTCHAR 0054
ENCODING 84
SWIDTH 810 0
DWIDTH 36 0
BBX 0 0 0 0
BITMAP
ENDCHAR
STARTCHAR 0055
ENCODING 85
SWIDTH 810 0
DWIDTH 36 0
BBX 0 0 0 0
BITMAP
ENDCHAR
STARTCHAR 0056
ENCODING 86
SWIDTH 810 0
DWIDTH 36 0
BBX 0 0 0 0
BITMAP
ENDCHAR
STARTCHAR 0057
ENCODING 87
SWIDTH 810 0
DWIDTH 36 0
BBX 0 0 0 0
BITMAP
ENDCHAR
STARTCHAR 0058
ENCODING 88
SWIDTH 810 0
DWIDTH 36 0
BBX 0 0 0 0
BITMAP
ENDCHAR
STARTCHAR 0059
ENCODING 89
SWIDTH 810 0
DWIDTH 36 0
BBX 0 0 0 0
BITMAP
ENDCHAR
STARTCHAR 005A
ENCODING 90
SWIDTH 810 0
DWIDTH 36 0
BBX 0 0 0 0
BITMAP
ENDCHAR
STARTCHAR 005C
ENCODING 92
SWIDTH 810 0
DWIDTH 36 0
BBX 14 32 11 6
BITMAP
8000
C000
C000
E000
E000
E000
E000
E000
E000
E000
6000
6000
0000
0000
0000
0000
0000
0000
0000
0000
0018
0018
001C
001C
001C
001C
001C
001C
001C
000C
000C
0004
ENDCHAR
STARTCHAR 005E
ENCODING 94
SWIDTH 810 0
DWIDTH 36 0
BBX 10 20 4 22
BITMAP
4000
E000
F000
F800
FD00
FD80
FD80
FDC0
FDC0
FDC0
FDC0
FDC0
FDC0
FDC0
FCC0
FCC0
FC00
F800
F000
E000
ENDCHAR
STARTCHAR 005F
ENCODING 95
SWIDTH 810 0
DWIDTH 36 0
BBX 23 5 6 0
BITMAP
1FFFF0
3FFFF8
7FFFFC
FFFFFE
7FFFFE
ENDCHAR
STARTCHAR 0060
ENCODING 96
SWIDTH 810 0
DWIDTH 36 0
BBX 3 12 11 26
BITMAP
80
C0
C0
E0
E0
E0
E0
E0
E0
E0
60
60
ENDCHAR
STARTCHAR 0061
ENCODING 97
SWIDTH 810 0
DWIDTH 36 0
BBX 0 0 0 0
BITMAP
ENDCHAR
STARTCHAR 0062
ENCODING 98
SWIDTH 810 0
DWIDTH 36 0
BBX 0 0 0 0
BITMAP
ENDCHAR
STARTCHAR 0063
ENCODING 99
SWIDTH 810 0
DWIDTH 36 0
BBX 0 0 0 0
BITMAP
ENDCHAR
STARTCHAR 0064
ENCODING 100
SWIDTH 810 0
DWIDTH 36 0
BBX 0 0 0 0
BITMAP
ENDCHAR
STARTCHAR 0065
ENCODING 101
SWIDTH 810 0
DWIDTH 36 0
BBX 0 0 0 0
BITMAP
ENDCHAR
STARTCHAR 0066
ENCODING 102
SWIDTH 810 0
DWIDTH 36 0
BBX 0 0 0 0
BITMAP
ENDCHAR
STARTCHAR 0067
ENCODING 103
SWIDTH 810 0
DWIDTH 36 0
BBX 0 0 0 0
BITMAP
ENDCHAR
STARTCHAR 0068
ENCODING 104
SWIDTH 810 0
DWIDTH 36 0
BBX 0 0 0 0
BITMAP
ENDCHAR
STARTCHAR 0069
ENCODING 105
SWIDTH 810 0
DWIDTH 36 0
BBX 0 0 0 0
BITMAP
ENDCHAR
STARTCHAR 006A
ENCODING 106
SWIDTH 810 0
DWIDTH 36 0
BBX 0 0 0 0
BITMAP
ENDCHAR
STARTCHAR 006B
ENCODING 107
SWIDTH 810 0
DWIDTH 36 0
BBX 0 0 0 0
BITMAP
ENDCHAR
STARTCHAR 006C
ENCODING 108
SWIDTH 810 0
DWIDTH 36 0
BBX 0 0 0 0
BITMAP
ENDCHAR
STARTCHAR 006D
ENCODING 109
SWIDTH 810 0
DWIDTH 36 0
BBX 0 0 0 0
BITMAP
ENDCHAR
STARTCHAR 006E
ENCODING 110
SWIDTH 810 0
DWIDTH 36 0
BBX 0 0 0 0
BITMAP
ENDCHAR
STARTCHAR 006F
ENCODING 111
SWIDTH 810 0
DWIDTH 36 0
BBX 0 0 0 0
BITMAP
ENDCHAR
STARTCHAR 0070
ENCODING 112
SWIDTH 810 0
DWIDTH 36 0
BBX 0 0 0 0
BITMAP
ENDCHAR
STARTCHAR 0071
ENCODING 113
SWIDTH 810 0
DWIDTH 36 0
BBX 0 0 0 0
BITMAP
ENDCHAR
STARTCHAR 0072
ENCODING 114
SWIDTH 810 0
DWIDTH 36 0
BBX 0 0 0 0
BITMAP
ENDCHAR
STARTCHAR 0073
ENCODING 115
SWIDTH 810 0
DWIDTH 36 0
BBX 0 0 0 0
BITMAP
ENDCHAR
STARTCHAR 0074
ENCODING 116
SWIDTH 810 0
DWIDTH 36 0
BBX 0 0 0 0
BITMAP
ENDCHAR
STARTCHAR 0075
ENCODING 117
SWIDTH 810 0
DWIDTH 36 0
BBX 0 0 0 0
BITMAP
ENDCHAR
STARTCHAR 0076
ENCODING 118
SWIDTH 810 0
DWIDTH 36 0
BBX 0 0 0 0
BITMAP
ENDCHAR
STARTCHAR 0077
ENCODING 119
SWIDTH 810 0
DWIDTH 36 0
BBX 0 0 0 0
BITMAP
ENDCHAR
STARTCHAR 0078
ENCODING 120
SWIDTH 810 0
DWIDTH 36 0
BBX 0 0 0 0
BITMAP
ENDCHAR
STARTCHAR 0079
ENCODING 121
SWIDTH 810 0
DWIDTH 36 0
BBX 0 0 0 0
BITMAP
ENDCHAR
STARTCHAR 007A
ENCODING 122
SWIDTH 810 0
DWIDTH 36 0
BBX 0 0 0 0
BITMAP
ENDCHAR
STARTCHAR 007C
ENCODING 124
SWIDTH 810 0
DWIDTH 36 0
BBX 6 32 15 6
BITMAP
FC
FC
FC
FC
FC
FC
FC
FC
FC
FC
FC
78
70
30
00
00
00
00
30
70
78
FC
FC
FC
FC
FC
FC
FC
FC
FC
FC
FC
ENDCHAR
STARTCHAR 007E
ENCODING 126
SWIDTH 810 0
DWIDTH 36 0
BBX 28 44 4 0
BITMAP
1FFFFF80
3FFFFF80
5FFFFF20
EFFFFE70
F7FFFCF0
F80001F0
FD1F8BF0
FD9F9BF0
FD9F9BF0
FDDFBBF0
FDDFBBF0
FDDFBBF0
FDDFBBF0
FDDFBBF0
FDDFBBF0
FDDFBBF0
FCDFB3F0
FCCF33F0
FC0E03F0
FBF6FDF0
F7F9FEF0
EFF9FF70
EFF9FF70
F7F9FEF0
FBF6FDF0
FC0E03F0
FCCF33F0
FCDFB3F0
FDDFBBF0
FDDFBBF0
FDDFBBF0
FDDFBBF0
FDDFBBF0
FDDFBBF0
FDDFBBF0
FD9F9BF0
FD9F9BF0
FD1F8BF0
F80001F0
F7FFFCF0
EFFFFE70
5FFFFF20
3FFFFF80
1FFFFF80
ENDCHAR
STARTCHAR 00A5
ENCODING 165
SWIDTH 810 0
DWIDTH 36 0
BBX 20 32 8 6
BITMAP
100080
180180
180180
1C0380
1C0380
1C0380
1C0380
1C0380
1C0380
1C0380
0C0300
0C0300
000000
3F0FC0
7F9FE0
FF9FF0
FF9FF0
7F9FE0
3F6FC0
00E000
00F000
01F800
01F800
01F800
01F800
01F800
01F800
01F800
01F800
01F800
01F800
01F800
ENDCHAR
STARTCHAR 00A6
ENCODING 166
SWIDTH 810 0
DWIDTH 36 0
BBX 6 32 15 6
BITMAP
FC
FC
FC
FC
FC
FC
FC
FC
FC
FC
FC
78
70
30
00
00
00
00
30
70
78
FC
FC
FC
FC
FC
FC
FC
FC
FC
FC
FC
ENDCHAR
STARTCHAR 00B0
ENCODING 176
SWIDTH 405 0
DWIDTH 18 0
BBX 28 24 4 20
BITMAP
7FFFFFA0
7FFFFF70
9FFFFF70
CFFFFEF0
F3FFFEF0
FC0001F0
FC0001F0
FC0003F0
FC0003F0
FC0003F0
FC0003F0
FC0003F0
FC0003F0
FC0003F0
FC0003F0
FC0003F0
FC0003F0
FC0003F0
FC0001F0
FDFFFCF0
F9FFFE30
FBFFFF80
33FFFFE0
07FFFFC0
ENDCHAR
STARTCHAR 00B1
ENCODING 177
SWIDTH 810 0
DWIDTH 36 0
BBX 23 38 6 0
BITMAP
007E00
007E00
007E00
007E00
007E00
007E00
007E00
007E00
007E00
007E00
007E00
003C00
003800
0FDBF0
1FE7F8
3FE7FC
3FE7FC
1FE7F8
0FDBF0
003800
003C00
007E00
007E00
007E00
007E00
007E00
007E00
007E00
007E00
007E00
007E00
007E00
000000
1FFFF0
3FFFF8
7FFFFC
FFFFFE
7FFFFE
ENDCHAR
ENDFONT
